<svg id="Layer_2" data-name="Layer 2" xmlns="http://www.w3.org/2000/svg" viewBox="0 0 325.7427 485.7065"><title>eos_logo</title><path d="M376.0107,11.5435,269.7993,161.6968,213.5874,401.4355,375.9844,497.25,539.33,401.49,484.1523,161.8145ZM479.73,162.5186,451.7832,250.355,378.0508,122.958l-.0352-101.7808ZM376.0186,127.4321l74.1259,128.0752L404.9727,397.4785l-57.3882-.0137L302.8652,254.4434ZM374.0161,21.29l.0342,101.544-72.81,126.4145-27.12-86.7348ZM271.6167,169.7705l26.6553,84.6328L221.3135,388.0215Zm28.9146,90.6123,42.8623,137.082-122.4156-.0273ZM222.7666,401.4766l121.8848.01,27.9892,89.3106Zm127.11-.01,53.6782.0117-27.5391,87.0684ZM379.48,490.791l28.415-89.3047,122.7451.0625ZM409.17,397.4785l43.66-137.2207L474.668,297.88l57.66,99.626Zm68.8867-101.73-23.26-40.186,27.0215-85.792,50.6367,219.6963Z" transform="translate(-213.5874 -11.5435)"/></svg>